<?xml version="1.0" encoding="UTF-8"?>
<svg width="32" height="32" version="1.1" viewBox="0 0 32 32" xmlns="http://www.w3.org/2000/svg">
 <defs>
  <style id="current-color-scheme" type="text/css">.ColorScheme-Text { color:#6e6e6e; } .ColorScheme-Highlight { color:#4285f4; } .ColorScheme-NeutralText { color:#ff9800; } .ColorScheme-PositiveText { color:#af504c; } .ColorScheme-NegativeText { color:#f44336; }</style>
 </defs>
 <path class="ColorScheme-Text" d="m8.373 1.0741-2.5976 1.5 0.67578 1.4336a4.7142 4.7142 0 0 0-0.79296 1.3789l-1.582 0.13281v3l1.582 0.13281a4.7142 4.7142 0 0 0 0.33594 0.72656 4.7142 4.7142 0 0 0 0.45704 0.65624l-0.67578 1.4297 2.5976 1.5039 0.90624-1.3047a4.7142 4.7142 0 0 0 1.5898-0.0039l0.90624 1.3086 2.5976-1.5-0.67578-1.4375a4.7142 4.7142 0 0 0 0.79688-1.3789l1.582-0.13281v-3l-1.582-0.12891a4.7142 4.7142 0 0 0-0.33594-0.72656 4.7142 4.7142 0 0 0-0.46094-0.65624l0.67578-1.4336-2.5976-1.5-0.90234 1.3008a4.7142 4.7142 0 0 0-1.5938 0.00391l-0.90624-1.3047zm1.6602 4.2344a1.7143 1.7143 0 0 1 1.5273 0.85546 1.7143 1.7143 0 0 1-0.6289 2.3398 1.7143 1.7143 0 0 1-2.3398-0.625 1.7143 1.7143 0 0 1 0.625-2.3438 1.7143 1.7143 0 0 1 0.8164-0.22656zm5.4804 5.6172-0.21876 2.6368a7.8572 7.8572 0 0 0-2.2968 1.3281l-2.3946-1.1289-2.5 4.332 2.1718 1.5078a7.8572 7.8572 0 0 0-0.11719 1.3242 7.8572 7.8572 0 0 0 0.11328 1.332l-2.168 1.5039 2.5 4.332 2.3868-1.125a7.8572 7.8572 0 0 0 2.3046 1.3203l0.21876 2.6368h5l0.21876-2.6328a7.8572 7.8572 0 0 0 2.2968-1.3281l2.3946 1.1289 2.5-4.332-2.1718-1.5078a7.8572 7.8572 0 0 0 0.1211-1.3281 7.8572 7.8572 0 0 0-0.11718-1.3281l2.168-1.5039-2.5-4.332-2.3868 1.125a7.8572 7.8572 0 0 0-2.3008-1.3203l-0.22266-2.6406h-5zm2.5 7.1446a2.8572 2.8572 0 0 1 2.8594 2.8554 2.8572 2.8572 0 0 1-2.8594 2.8594 2.8572 2.8572 0 0 1-2.8554-2.8594 2.8572 2.8572 0 0 1 2.8554-2.8554z" fill="#ff002b" stroke-width="2"/>
</svg>
