<?xml version="1.0" encoding="UTF-8"?>
<!-- Created with Inkscape (http://www.inkscape.org/) -->
<svg width="64" height="64" version="1.0" xml:space="preserve" xmlns="http://www.w3.org/2000/svg" xmlns:cc="http://creativecommons.org/ns#" xmlns:dc="http://purl.org/dc/elements/1.1/" xmlns:rdf="http://www.w3.org/1999/02/22-rdf-syntax-ns#"><defs><linearGradient id="linearGradient3867" x1="84.268" x2="214.5" y1="215.61" y2="138.73" gradientTransform="matrix(0 .39229 -.39229 0 93.202 -20.786)" gradientUnits="userSpaceOnUse"><stop stop-color="#ff0000" offset="0"/><stop stop-color="#ff0000" stop-opacity="0" offset="1"/></linearGradient><filter id="filter22" x="-1.3012" y="-1.1387" width="3.6025" height="3.2773" color-interpolation-filters="sRGB"><feGaussianBlur in="SourceAlpha" result="result0" stdDeviation="2.3"/><feMorphology in="SourceAlpha" radius="6.5" result="result1"/><feGaussianBlur in="result1" stdDeviation="7"/><feColorMatrix result="result91" values="1 0 0 0 0 0 1 0 0 0 0 0 1 0 0 0 0 0 0.3 0"/><feComposite in="result0" in2="result91" operator="out" result="result2"/><feDiffuseLighting surfaceScale="10"><feDistantLight azimuth="225" elevation="45"/></feDiffuseLighting><feBlend in2="SourceGraphic" mode="multiply"/><feComposite in2="SourceAlpha" operator="in" result="result3"/><feGaussianBlur in="result3" result="result4" stdDeviation="1"/><feComposite in2="result3" operator="atop"/></filter><filter id="filter25" x="-.52161" y="-.52161" width="2.0432" height="2.0432" color-interpolation-filters="sRGB"><feGaussianBlur in="SourceAlpha" result="result0" stdDeviation="2.3"/><feMorphology in="SourceAlpha" radius="6.5" result="result1"/><feGaussianBlur in="result1" stdDeviation="7"/><feColorMatrix result="result91" values="1 0 0 0 0 0 1 0 0 0 0 0 1 0 0 0 0 0 0.3 0"/><feComposite in="result0" in2="result91" operator="out" result="result2"/><feDiffuseLighting surfaceScale="10"><feDistantLight azimuth="225" elevation="45"/></feDiffuseLighting><feBlend in2="SourceGraphic" mode="multiply"/><feComposite in2="SourceAlpha" operator="in" result="result3"/><feGaussianBlur in="result3" result="result4" stdDeviation="1"/><feComposite in2="result3" operator="atop"/></filter></defs><metadata><rdf:RDF><cc:Work rdf:about=""><dc:format>image/svg+xml</dc:format><dc:type rdf:resource="http://purl.org/dc/dcmitype/StillImage"/></cc:Work></rdf:RDF></metadata><path d="m35.928 12.166c-4.5617 0-8.6969 1.7571-11.83 4.5971-1.2108-0.42086-2.5075-0.67424-3.8616-0.67424-6.4996 0-11.769 5.269-11.769 11.769 0 0.68399 0.071918 1.3707 0.18388 2.0227-4.7851 2.6877-8.0296 7.7898-8.0296 13.669 0 8.6662 7.0253 15.691 15.691 15.691h33.344c7.5829 0 13.73-6.1472 13.73-13.73 0-6.2887-4.2227-11.552-9.9911-13.178 0.11913-0.82825 0.18389-1.6518 0.18389-2.5131 0-9.7494-7.9035-17.653-17.653-17.653z" color="#000000" fill="#ae0000" opacity=".269"/><path d="m35.928 12.166c-4.5617 0-8.6969 1.7571-11.83 4.5971-1.2108-0.42086-2.5075-0.67424-3.8616-0.67424-6.4996 0-11.769 5.269-11.769 11.769 0 0.68399 0.071918 1.3707 0.18388 2.0227-4.7851 2.6877-8.0296 7.7898-8.0296 13.669 0 8.6662 7.0253 15.691 15.691 15.691h33.344c7.5829 0 13.73-6.1472 13.73-13.73 0-6.2887-4.2227-11.552-9.9911-13.178 0.11912-0.82825 0.18389-1.6518 0.18389-2.5131 0-9.7494-7.9035-17.653-17.653-17.653z" color="#000000" fill="url(#linearGradient3867)"/><g transform="matrix(1.1185 0 0 1.1185 -6.5274 13.725)"><path transform="matrix(.69444 0 0 .69444 17.333 5.3804)" d="m42.5 24.999c0 10.218-8.2833 18.501-18.5 18.501-10.217 0-18.5-8.2832-18.5-18.501 0-10.217 8.2829-18.499 18.5-18.499 10.216 0 18.5 8.2822 18.5 18.499z" fill="none" filter="url(#filter25)" stroke="#660000" stroke-width="2.1591"/><path d="m34 14.593c-2.2091 0-4.0007 1.7916-4.0007 4.0007s1.7916 4.0007 4.0007 4.0007c2.2092 0 4.0007-1.7916 4.0007-4.0007s-1.7915-4.0007-4.0007-4.0007zm0 10.001c-7.0003 4e-3 -7.0008 4.8005-7.0008 4.8005v1.1997h14.002v-1.1997s-8.14e-4 -4.8035-7.0008-4.8005z" fill="#660000" filter="url(#filter22)"/></g></svg>
