<svg xmlns="http://www.w3.org/2000/svg" viewBox="0 0 96 96" width="96" height="96">
  <defs>
    <style type="text/css">
      .ColorScheme-Text { color: #E31B23; }
      .ColorScheme-Accent { color: #E31B23; }
    </style>
  </defs>
  <path d="M 14.00 26.00 C 14.00 22.50 16.50 20.50 20.00 20.50 L 38.00 20.50 C 41.00 20.50 43.50 22.00 45.50 25.00 L 48.50 29.00 L 78.00 29.00 C 81.00 29.00 83.00 31.00 83.00 34.00 L 83.00 72.50 C 83.00 75.50 81.00 77.50 78.00 77.50 L 19.00 77.50 C 16.00 77.50 14.00 75.50 14.00 72.50 Z" fill="none" stroke="#E31B23" stroke-width="2.2" stroke-linecap="round" stroke-linejoin="round"/>
  <path d="M 37.00 39.00 L 53.00 39.00 L 61.00 47.00 L 61.00 67.00 C 61.00 68.50 59.50 70.00 58.00 70.00 L 40.00 70.00 C 38.50 70.00 37.00 68.50 37.00 67.00 Z"
        fill="none" stroke="#E31B23" stroke-width="2.2" stroke-linecap="round" stroke-linejoin="round"/>
  <path d="M 53.00 39.00 L 53.00 47.00 L 61.00 47.00" fill="none" stroke="#E31B23" stroke-width="2.2" stroke-linejoin="round"/>
  <line x1="42.00" y1="52.00" x2="51.00" y2="52.00" stroke="#E31B23" stroke-width="2.2" stroke-linecap="round"/>
  <line x1="42.00" y1="57.00" x2="56.00" y2="57.00" stroke="#E31B23" stroke-width="2.2" stroke-linecap="round"/>
  <line x1="42.00" y1="62.00" x2="53.00" y2="62.00" stroke="#E31B23" stroke-width="2.2" stroke-linecap="round"/>
</svg>