<svg xmlns="http://www.w3.org/2000/svg" viewBox="0 0 32 32" width="32" height="32">
  <defs>
    <style type="text/css">
      .ColorScheme-Text { color: #E31B23; }
      .ColorScheme-Accent { color: #E31B23; }
    </style>
  </defs>
  <path d="M 4.67 8.67 C 4.67 7.50 5.50 6.83 6.67 6.83 L 12.67 6.83 C 13.67 6.83 14.50 7.33 15.17 8.33 L 16.17 9.67 L 26.00 9.67 C 27.00 9.67 27.67 10.33 27.67 11.33 L 27.67 24.17 C 27.67 25.17 27.00 25.83 26.00 25.83 L 6.33 25.83 C 5.33 25.83 4.67 25.17 4.67 24.17 Z" fill="none" stroke="#E31B23" stroke-width="1.0" stroke-linecap="round" stroke-linejoin="round"/>
  <path d="M 14.00 15.00 L 12.00 17.33 L 14.00 19.67" fill="none" stroke="#E31B23" stroke-width="1.0" stroke-linecap="round" stroke-linejoin="round"/>
  <path d="M 18.00 15.00 L 20.00 17.33 L 18.00 19.67" fill="none" stroke="#E31B23" stroke-width="1.0" stroke-linecap="round" stroke-linejoin="round"/>
  <line x1="16.67" y1="14.33" x2="15.33" y2="20.33" stroke="#E31B23" stroke-width="1.0" stroke-linecap="round"/>
</svg>